<html>
<head>
<meta charset="UTF-8">
<meta name="viewport" content="width=device-width, initial-scale=1.0"/>

<style>
.comment
{
    padding-left: 20px;
    margin-top: 4px;
    margin-right: 4px;
    margin-bottom: 4px;
    border: 2px #000 solid;
}
.submission
{
    border: 4px #00f solid;
    padding-left: 20px;
}
.hidden
{
    display: none;
}
</style>
</head>
<body><div class="submission" id="t3_71xgzr">
    <p class="userinfo">
        <a href="https://www.reddit.com/u/xxdil111xx">xxdil111xx</a>
        <span class="score"> | 19 points</span>
        <span class="timestamp"> | Sep 23 2017 10:06:40</span>
    </p>
    <strong>[TV] South Park S21E02 UNCENSORED 1080p WEB-DL AAC 2.0 H.264 MEGA/ZIPPYSHARE LINKS (840MB)</strong>
    <p><p>Video
ID                                       : 1
Format                                   : AVC
Format/Info                              : Advanced Video Codec
Format profile                           : High@L4
Format settings, CABAC                   : Yes
Format settings, RefFrames               : 4 frames
Codec ID                                 : V_MPEG4/ISO/AVC
Duration                                 : 22 min 7 s
Bit rate                                 : 5 146 kb/s
Width                                    : 1 916 pixels
Height                                   : 1 076 pixels
Display aspect ratio                     : 16:9
Frame rate mode                          : Constant
Frame rate                               : 23.976 (24000/1001) FPS
Color space                              : YUV
Chroma subsampling                       : 4:2:0
Bit depth                                : 8 bits
Scan type                                : Progressive
Bits/(Pixel*Frame)                       : 0.104
Stream size                              : 814 MiB (97%)
Title                                    : H.264
Language                                 : English
Default                                  : Yes
Forced                                   : No
Color range                              : Limited
Color primaries                          : BT.709
Transfer characteristics                 : BT.709
Matrix coefficients                      : BT.709</p>
<p>Audio
ID                                       : 2
Format                                   : AAC
Format/Info                              : Advanced Audio Codec
Format profile                           : LC
Codec ID                                 : A_AAC
Duration                                 : 22 min 7 s
Bit rate                                 : 154 kb/s
Channel(s)                               : 2 channels
Channel positions                        : Front: L R
Sampling rate                            : 48.0 kHz
Frame rate                               : 46.875 FPS (1024 SPF)
Compression mode                         : Lossy
Stream size                              : 24.3 MiB (3%)
Title                                    : AAC2.0
Language                                 : English</p>
<p>Sorry for this being so late guys, but here is a Uncensored version of episodes 2 of south park.</p>
<p>This wasn't my personal encode. I got this from another tracker.</p>
<p><strong>MEGA</strong></p>
<p>use Base64 to decode <strong>Link</strong> and <strong>Key</strong>
https://www.base64decode.org/</p>
<p><strong>REMOVE</strong> <strong>#SALT!</strong> from both <strong>LINK</strong> and <strong>KEY</strong></p>
<p><strong>Link:</strong> aHR0cHM6Ly9tZWdhLm56LyNGIXYwd2cjU2FsdCF6UmhT</p>
<p><strong>Key:</strong> IV82M2hiTkQwcVRII1NhbHQhUU9LTGx5djBMd0E=</p>
<p><strong>ZIPPYSHARE</strong></p>
<p>Pass = name of the sub reddit
<a href="http://links.snahp.it/442SPS21E02">SOUTH PARK S21E02</a></p></p>
    <p class="toolbar">
        <a href="https://www.reddit.com/r/megalinks/comments/71xgzr">permalink</a>
    </p>
</div>
<div class="comment" id="t1_dne5hnb">
    <p class="userinfo">
        <a
        class="toggle_hide_button"
        href="javascript:void(0)"
        onclick="toggle_collapse(this.parentElement.parentElement)">[-]
        </a>
        <a href="https://www.reddit.com/u/SubZorro">SubZorro</a>
        <span class="score"> | 1 points</span>
        <span class="timestamp"> | Sep 23 2017 10:12:04</span>
    </p>
    <div class="collapsible">
        <h5>Subtitles for this episode:</h5>
<hr>
<blockquote>
<ul>
<li>
<p><strong>South.Park.S21E02.HDTV.x264-SVA</strong> - <code>1 CD</code> - <a href="http://dl.opensubtitles.org/en/download/vrf-ab7d8728/sub/7102483">Download Subtitle</a></p>
</li>
<li>
<p><strong>South.Park.S21E02.iNTERNAL.720p.WEB.h264-BAMBOOZLE</strong> - <code>1 CD</code> - <a href="http://dl.opensubtitles.org/en/download/vrf-0e71bfd2/sub/7102579">Download Subtitle</a></p>
</li>
</ul>
</blockquote>
<hr>
<p>^This ^list ^of ^subtitles ^are ^taken ^from <a href="http://www.opensubtitles.org">^opensubtitles.org</a> ^| ^For ^feedback ^or ^suggestions ^contact <a href="http://www.reddit.com/message/compose/?to=indigo6alpha">^/u/indigo6alpha</a></p>
        <p class="toolbar">
            <a href="https://www.reddit.com/r/megalinks/comments/71xgzr/_/dne5hnb">permalink</a>
        </p>
        
    </div>
</div>

<div class="comment" id="t1_dnem5tg">
    <p class="userinfo">
        <a
        class="toggle_hide_button"
        href="javascript:void(0)"
        onclick="toggle_collapse(this.parentElement.parentElement)">[-]
        </a>
        <a href="https://www.reddit.com/u/AeroRandy">AeroRandy</a>
        <span class="score"> | 1 points</span>
        <span class="timestamp"> | Sep 23 2017 17:53:20</span>
    </p>
    <div class="collapsible">
        <p>thanks</p>
        <p class="toolbar">
            <a href="https://www.reddit.com/r/megalinks/comments/71xgzr/_/dnem5tg">permalink</a>
        </p>
        
    </div>
</div>

<div class="comment" id="t1_dneyf9h">
    <p class="userinfo">
        <a
        class="toggle_hide_button"
        href="javascript:void(0)"
        onclick="toggle_collapse(this.parentElement.parentElement)">[-]
        </a>
        <a href="https://www.reddit.com/u/Shanks01">Shanks01</a>
        <span class="score"> | 1 points</span>
        <span class="timestamp"> | Sep 23 2017 22:11:57</span>
    </p>
    <div class="collapsible">
        <p>Excelente , gracias por compartir .</p>
        <p class="toolbar">
            <a href="https://www.reddit.com/r/megalinks/comments/71xgzr/_/dneyf9h">permalink</a>
        </p>
        
    </div>
</div>

<div class="comment" id="t1_dnm6wsd">
    <p class="userinfo">
        <a
        class="toggle_hide_button"
        href="javascript:void(0)"
        onclick="toggle_collapse(this.parentElement.parentElement)">[-]
        </a>
        <a href="https://www.reddit.com/u/maidensuit">maidensuit</a>
        <span class="score"> | 1 points</span>
        <span class="timestamp"> | Sep 28 2017 06:16:20</span>
    </p>
    <div class="collapsible">
        <p>Thank you!!</p>
        <p class="toolbar">
            <a href="https://www.reddit.com/r/megalinks/comments/71xgzr/_/dnm6wsd">permalink</a>
        </p>
        
    </div>
</div>
</body>

<script>
function toggle_collapse(comment_div)
{
    var button = comment_div.getElementsByClassName("toggle_hide_button")[0];
    var collapsible = comment_div.getElementsByClassName("collapsible")[0];
    if (collapsible.classList.contains("hidden"))
    {
        collapsible.classList.remove("hidden");
        button.innerText = "[-]";
    }
    else
    {
        collapsible.classList.add("hidden");
        button.innerText = "[+]";
    }
}
</script>
</html>
